HIERARCHY
ROOT Hips
{
	OFFSET 0.000000 0.000000 0.000000
	CHANNELS 6 Xposition Yposition Zposition Zrotation Yrotation Xrotation 
	JOINT LHipJoint
	{
		OFFSET 0.000000 0.000000 0.000000
		CHANNELS 3 Zrotation Yrotation Xrotation
		JOINT LeftUpLeg
		{
			OFFSET 1.363060 -1.794630 0.839290
			CHANNELS 3 Zrotation Yrotation Xrotation
			JOINT LeftLeg
			{
				OFFSET 2.448110 -6.726130 0.000000
				CHANNELS 3 Zrotation Yrotation Xrotation
				JOINT LeftFoot
				{
					OFFSET 2.562200 -7.039590 0.000000
					CHANNELS 3 Zrotation Yrotation Xrotation
					JOINT LeftToeBase
					{
						OFFSET 0.157640 -0.433110 2.322550
						CHANNELS 3 Zrotation Yrotation Xrotation
						End Site
						{
							OFFSET 0.000000 0.000000 0.000000
						}
					}
				}
			}
		}
	}
	JOINT RHipJoint
	{
		OFFSET 0.000000 0.000000 0.000000
		CHANNELS 3 Zrotation Yrotation Xrotation
		JOINT RightUpLeg
		{
			OFFSET -1.305520 -1.794630 0.839290
			CHANNELS 3 Zrotation Yrotation Xrotation
			JOINT RightLeg
			{
				OFFSET -2.542530 -6.985550 0.000000
				CHANNELS 3 Zrotation Yrotation Xrotation
				JOINT RightFoot
				{
					OFFSET -2.568260 -7.056230 0.000000
					CHANNELS 3 Zrotation Yrotation Xrotation
					JOINT RightToeBase
					{
						OFFSET -0.164730 -0.452590 2.363150
						CHANNELS 3 Zrotation Yrotation Xrotation
						End Site
						{
							OFFSET 0.000000 0.000000 0.000000
						}
					}
				}
			}
		}
	}
	JOINT LowerBack
	{
		OFFSET 0.000000 0.000000 0.000000
		CHANNELS 3 Zrotation Yrotation Xrotation
		JOINT Spine
		{
			OFFSET 0.028270 2.035590 -0.193380
			CHANNELS 3 Zrotation Yrotation Xrotation
			JOINT Spine1
			{
				OFFSET 0.056720 2.048850 -0.042750
				CHANNELS 3 Zrotation Yrotation Xrotation
				JOINT Neck
				{
					OFFSET 0.000000 0.000000 0.000000
					CHANNELS 3 Zrotation Yrotation Xrotation
					JOINT Neck1
					{
						OFFSET -0.054170 1.746240 0.172020
						CHANNELS 3 Zrotation Yrotation Xrotation
						JOINT Head
						{
							OFFSET 0.104070 1.761360 -0.123970
							CHANNELS 3 Zrotation Yrotation Xrotation
							End Site
							{
								OFFSET 0.000000 0.000000 0.000000
							}
						}
					}
				}
				JOINT LeftShoulder
				{
					OFFSET 0.000000 0.000000 0.000000
					CHANNELS 3 Zrotation Yrotation Xrotation
					JOINT LeftArm
					{
						OFFSET 3.362410 1.200890 -0.311210
						CHANNELS 3 Zrotation Yrotation Xrotation
						JOINT LeftForeArm
						{
							OFFSET 4.983000 -0.000000 -0.000000
							CHANNELS 3 Zrotation Yrotation Xrotation
							JOINT LeftHand
							{
								OFFSET 3.483560 -0.000000 -0.000000
								CHANNELS 3 Zrotation Yrotation Xrotation
								JOINT LeftFingerBase
								{
									OFFSET 0.000000 0.000000 0.000000
									CHANNELS 3 Zrotation Yrotation Xrotation
									JOINT LeftHandIndex1
									{
										OFFSET 0.715260 -0.000000 -0.000000
										CHANNELS 3 Zrotation Yrotation Xrotation
										End Site
										{
											OFFSET 0.000000 0.000000 0.000000
										}
									}
								}
								JOINT LThumb
								{
									OFFSET 0.000000 0.000000 0.000000
									CHANNELS 3 Zrotation Yrotation Xrotation
									End Site
									{
										OFFSET 0.000000 0.000000 0.000000
									}
								}
							}
						}
					}
				}
				JOINT RightShoulder
				{
					OFFSET 0.000000 0.000000 0.000000
					CHANNELS 3 Zrotation Yrotation Xrotation
					JOINT RightArm
					{
						OFFSET -3.136600 1.374050 -0.404650
						CHANNELS 3 Zrotation Yrotation Xrotation
						JOINT RightForeArm
						{
							OFFSET -5.241900 -0.000000 -0.000000
							CHANNELS 3 Zrotation Yrotation Xrotation
							JOINT RightHand
							{
								OFFSET -3.444170 -0.000000 -0.000000
								CHANNELS 3 Zrotation Yrotation Xrotation
								JOINT RightFingerBase
								{
									OFFSET 0.000000 0.000000 0.000000
									CHANNELS 3 Zrotation Yrotation Xrotation
									JOINT RightHandIndex1
									{
										OFFSET -0.622530 -0.000000 -0.000000
										CHANNELS 3 Zrotation Yrotation Xrotation
										End Site
										{
											OFFSET 0.000000 0.000000 0.000000
										}
									}
								}
								JOINT RThumb
								{
									OFFSET 0.000000 0.000000 0.000000
									CHANNELS 3 Zrotation Yrotation Xrotation
									End Site
									{
										OFFSET 0.000000 0.000000 0.000000
									}
								}
							}
						}
					}
				}
			}
		}
	}
}
MOTION
Frames: 6
Frame Time: 0.008333
3.302412 15.291262 -5.244076 -0.546919 -29.960085 11.188703 3.972257 0.842661 -1.088739 -1.026047 14.808723 -30.063908 9.513876 17.219779 56.876229 1.875793 -3.280129 -8.864785 7.633600 -15.843000 -51.231900 -6.667617 1.766292 -5.704570 2.844933 -9.321646 -53.835511 -4.915088 -15.016411 40.662156 4.128471 -15.854305 0.909370 -3.362000 11.259300 -33.159300 -2.636260 -2.698766 48.406091 1.601475 -1.253735 -1.374299 11.413716 -3.117455 -1.199949 -11.988304 -11.167169 -4.611975 18.268026 -21.078581 -10.968418 16.273700 -6.258200 -6.385000 -1.432146 -1.486709 2.296280 -58.296882 -7.599444 -1.649030 25.344981 -38.132069 -14.954050 -0.765146 -2.255974 -49.405217 27.110507 12.177444 7.144700 -7.125000 0.000000 0.000000 1.878300 44.681200 -0.014800 -1.294305 1.387288 2.655464 69.570260 8.121121 -11.509203 -84.671397 59.328732 -66.077541 1.816977 0.615427 -35.142487 -57.079233 43.878012 -48.169400 7.125000 0.000000 0.000000 -9.940800 29.830800 -13.694500 
2.805399 15.267563 -4.981136 -0.242554 -29.965649 10.966045 3.856144 1.100256 -0.794818 0.176999 14.988555 -27.545803 8.941477 16.694174 54.872985 1.814346 -3.313022 -7.082007 7.728200 -15.915600 -51.577600 -6.710105 1.732536 -5.898651 2.882837 -9.693343 -53.497249 -4.243185 -14.308391 37.976524 4.294102 -16.444085 2.489782 -3.112000 10.874200 -31.856800 -1.768908 -3.382008 47.566932 1.651650 -1.700272 -1.374047 11.300361 -3.324616 -0.977786 -12.359095 -11.398948 -4.673769 17.623471 -21.170964 -10.781307 15.858800 -6.222400 -6.340100 -1.410790 -1.358286 2.285540 -59.473988 -7.473307 -1.402973 23.771389 -37.104649 -13.694464 -0.845325 -2.139461 -47.202800 26.861353 12.027662 6.949100 -7.125000 0.000000 0.000000 1.600000 44.419300 -0.022900 -1.340394 1.380241 2.660573 69.718193 8.180326 -10.155713 -82.342668 58.829304 -63.988837 1.841451 0.559252 -34.019466 -56.812680 43.892251 -47.907900 7.125000 0.000000 0.000000 -9.783900 29.725600 -13.468000 
2.298053 15.247457 -4.713367 0.018471 -29.857000 10.790648 3.759461 1.345997 -0.508067 1.457434 14.767488 -24.977920 8.343579 16.121550 52.770847 1.715718 -3.178677 -5.133788 7.941900 -16.076400 -52.353200 -6.749002 1.641376 -5.991870 3.416599 -10.487238 -53.488237 -3.764033 -13.779981 36.141971 4.276669 -16.389675 3.299081 -2.644000 10.095200 -29.285600 -0.889839 -4.082538 46.517480 1.659777 -2.308169 -1.426819 10.923271 -3.484718 -0.967464 -12.981013 -11.307137 -4.636228 17.050483 -20.773115 -10.172219 15.824200 -5.969300 -6.022200 -1.481796 -1.267669 2.249372 -60.514137 -6.569168 -1.193990 22.720583 -36.441844 -12.854606 -0.852037 -2.039493 -45.663590 26.105640 11.709829 6.547500 -7.125000 0.000000 0.000000 0.845000 43.957000 -0.021800 -1.570362 1.405095 2.644921 70.340805 8.068540 -8.473049 -79.489299 58.127500 -61.350380 1.866183 0.464218 -32.826239 -56.843656 43.932864 -48.002600 7.125000 0.000000 0.000000 -9.712100 29.875500 -13.376400 
1.779138 15.243863 -4.443015 0.348232 -29.767806 10.546425 3.654487 1.592680 -0.223064 2.725743 14.235738 -22.295046 7.729366 15.516732 50.621499 1.601861 -3.034560 -2.526810 8.101300 -16.193300 -52.926800 -6.765707 1.531643 -6.032069 4.125297 -11.304101 -53.457506 -3.466281 -13.448992 35.015393 4.290139 -16.412252 3.773644 -2.165600 9.202900 -26.432100 -0.060530 -4.733160 45.341035 1.662873 -2.933539 -1.471710 10.145720 -3.650475 -0.951753 -12.395311 -11.252766 -4.278521 16.121839 -20.268459 -9.651560 15.065600 -5.892300 -6.232700 -1.377920 -1.129252 2.234763 -61.570309 -5.462103 -1.250468 21.960252 -35.987107 -12.258328 -0.822084 -1.946463 -44.773000 25.202503 11.231378 6.043200 -7.125000 0.000000 0.000000 -0.030300 43.312500 0.001300 -1.645319 1.444912 2.627031 71.131359 8.081570 -6.773342 -76.166028 57.279386 -58.194905 1.878378 0.378014 -31.667226 -56.420756 43.438648 -47.325500 7.125000 0.000000 0.000000 -9.671500 29.283900 -13.283600 
1.246632 15.244874 -4.172887 0.969768 -29.844473 10.139144 3.524108 1.838031 0.070141 3.796129 13.408256 -19.505747 7.109359 14.905589 48.523898 1.543073 -3.097695 0.982543 7.842600 -16.002300 -51.993800 -6.775264 1.423286 -6.063949 4.629228 -11.887959 -53.327806 -3.361358 -13.331756 34.543656 4.413530 -16.817108 4.195727 -2.057400 8.984700 -25.747500 0.279222 -5.201407 43.948866 1.669208 -3.516730 -1.475842 9.705916 -3.847535 -0.761417 -12.211898 -11.110771 -4.041712 15.205308 -19.663653 -9.057190 14.445800 -5.718200 -6.344000 -1.281987 -0.968716 2.235081 -63.082123 -4.295120 -1.688921 21.540494 -35.815379 -11.934037 -0.774440 -1.863886 -44.566285 24.695124 11.076793 5.810700 -7.125000 0.000000 0.000000 -0.562900 43.065200 0.026900 -1.718792 1.416426 2.603228 71.523324 8.458801 -5.063290 -72.180466 56.249369 -54.350472 1.874811 0.297057 -30.887136 -55.940279 42.612482 -46.407500 7.125000 0.000000 0.000000 -9.735000 28.367100 -13.313700 
0.704804 15.242965 -3.901411 1.895284 -30.024926 9.490658 3.374613 2.072372 0.368959 4.588010 12.270610 -16.705669 6.519897 14.313721 46.542028 1.274590 -2.196041 4.906645 7.456500 -15.704500 -50.580400 -6.775520 1.302267 -6.048623 4.887781 -12.351688 -53.038545 -3.417850 -13.399852 34.728877 4.486515 -17.013027 4.176916 -2.144400 9.160600 -26.298900 0.269480 -5.519982 42.636574 1.670067 -4.041625 -1.484484 9.553055 -4.037808 -0.469309 -12.535161 -11.013313 -4.026788 14.449780 -19.212749 -8.488762 14.074800 -5.523200 -6.250700 -1.197118 -0.811467 2.223751 -65.048227 -3.173519 -2.303235 21.495503 -35.938723 -11.859385 -0.718073 -1.772661 -44.837152 24.363308 11.123196 5.711600 -7.125000 0.000000 0.000000 -0.958400 43.038900 0.046400 -1.839497 1.365506 2.573758 71.581661 9.221363 -3.720862 -67.917359 55.110252 -50.203084 1.870479 0.194524 -30.736043 -55.993072 42.231094 -46.317500 7.125000 0.000000 0.000000 -9.809100 28.215800 -13.406800 
